<?xml version="1.0" encoding="UTF-8"?>
<svg xmlns="http://www.w3.org/2000/svg" xmlns:xlink="http://www.w3.org/1999/xlink" width="375px" height="375px" viewBox="0 0 375 375" version="1.1">
<g id="surface1">
<path style=" stroke:none;fill-rule:nonzero;fill:rgb(96.470588%,90.588235%,5.882353%);fill-opacity:1;" d="M 285.0625 14.789062 C 284.164062 13.890625 270.601562 25.722656 250.042969 44.695312 C 251.542969 45.785156 252.871094 46.789062 253.996094 47.679688 L 285.070312 14.789062 Z M 17.835938 267.277344 C 13.761719 271.351562 13.761719 277.949219 17.835938 282.023438 C 21.910156 286.097656 28.515625 286.097656 32.582031 282.023438 L 42.773438 271.238281 C 39.449219 264.863281 36.511719 258.292969 33.980469 251.5625 C 23.8125 261.441406 17.835938 267.277344 17.835938 267.277344 Z M 129.914062 179.003906 L 168.261719 138.421875 C 166.179688 134.710938 164.3125 130.96875 162.652344 127.304688 C 150.15625 139.265625 137.53125 151.40625 125.21875 163.261719 C 126.414062 168.140625 127.828125 172.992188 129.484375 177.800781 C 129.625 178.203125 129.773438 178.605469 129.921875 179.003906 Z M 207.800781 236.097656 C 206.828125 234.972656 206.1875 233.597656 205.941406 232.128906 C 205.25 227.96875 207.835938 223.964844 211.910156 222.878906 C 215.269531 221.988281 218.902344 221.179688 222.703125 220.453125 L 224.824219 218.230469 L 207.566406 217.242188 C 197.078125 227.382812 186.65625 237.46875 176.5 247.3125 C 180.277344 250.566406 184.222656 253.648438 188.316406 256.542969 L 207.792969 236.097656 Z M 63.640625 357.191406 C 59.5625 361.265625 59.5625 367.871094 63.640625 371.945312 C 67.714844 376.019531 74.320312 376.019531 78.386719 371.945312 L 108.035156 340.820312 C 102.355469 337.390625 96.929688 333.691406 91.761719 329.722656 C 74.335938 346.726562 63.628906 357.199219 63.628906 357.199219 Z M 242.390625 199.789062 C 238.8125 197.425781 235.644531 195.097656 232.90625 192.792969 L 225.722656 199.710938 C 230.847656 199.984375 236.089844 200.339844 241.457031 200.777344 L 242.390625 199.800781 Z M 374.984375 60.601562 C 373.605469 59.222656 337.277344 92.957031 289.894531 138.125 C 292.226562 139.058594 294.894531 140.304688 297.453125 141.988281 Z M 367.6875 0.0351562 C 366.441406 -1.214844 331.683594 31.1875 284.101562 76.710938 C 285.960938 78.742188 287.566406 80.539062 288.925781 82.113281 Z M 3.070312 349.894531 C -1.003906 353.96875 -1.003906 360.574219 3.070312 364.640625 C 7.148438 368.71875 13.753906 368.71875 17.820312 364.640625 L 70.183594 310.070312 C 65.949219 305.515625 61.964844 300.769531 58.253906 295.835938 C 25.070312 328.296875 3.0625 349.894531 3.0625 349.894531 Z M 145.269531 210.941406 C 147.886719 215.132812 150.679688 219.179688 153.65625 223.089844 L 269.292969 102.574219 C 264.460938 102.949219 259.660156 103.628906 254.921875 104.710938 C 220.253906 138.082031 181.640625 175.53125 145.269531 210.933594 Z M 145.269531 210.941406 "/>
<path style=" stroke:none;fill-rule:nonzero;fill:rgb(0%,62.745098%,60.784314%);fill-opacity:1;" d="M 140.488281 325.933594 C 56.492188 284.992188 21.597656 183.707031 62.539062 99.722656 C 68.945312 86.589844 76.824219 74.660156 85.890625 64.023438 C 70.515625 78.027344 57.476562 95.121094 47.808594 114.949219 C 6.867188 198.933594 41.761719 300.21875 125.75 341.160156 C 196.613281 375.707031 279.773438 356.246094 328.628906 298.875 C 278.902344 344.195312 204.652344 357.199219 140.480469 325.917969 Z M 140.488281 325.933594 "/>
<path style=" stroke:none;fill-rule:nonzero;fill:rgb(0%,79.215686%,76.862745%);fill-opacity:1;" d="M 344.335938 282.511719 C 301.613281 299.527344 252.15625 299.164062 207.566406 277.425781 C 123.578125 236.484375 88.683594 135.199219 129.625 51.214844 C 135.648438 38.835938 143.160156 27.242188 151.988281 16.683594 C 126.824219 26.703125 104.003906 42.757812 85.890625 64.023438 C 76.632812 74.890625 68.785156 86.882812 62.539062 99.722656 C 21.597656 183.71875 56.492188 284.992188 140.480469 325.933594 C 204.652344 357.214844 278.902344 344.214844 328.628906 298.890625 C 334.1875 293.832031 339.441406 288.367188 344.328125 282.523438 Z M 344.335938 282.511719 "/>
<path style=" stroke:none;fill-rule:evenodd;fill:rgb(0%,62.745098%,60.784314%);fill-opacity:1;" d="M 352.660156 231.613281 C 354.765625 231.605469 356.789062 230.3125 358.492188 228.777344 C 361.144531 226.386719 363.761719 223.761719 365.671875 220.777344 C 367.625 217.722656 366.519531 214.824219 362.589844 214.640625 C 359.378906 214.492188 356.160156 214.425781 352.941406 214.441406 L 352.390625 214.441406 C 349.171875 214.433594 345.949219 214.492188 342.730469 214.640625 C 338.804688 214.824219 337.695312 217.722656 339.660156 220.777344 C 341.570312 223.761719 344.179688 226.386719 346.832031 228.777344 C 348.535156 230.3125 350.558594 231.597656 352.660156 231.613281 Z M 189.84375 153.980469 C 173.054688 137.199219 163.683594 109.921875 160.015625 94.265625 C 152.878906 63.742188 160.863281 31.910156 172.453125 16.691406 C 205.042969 22.738281 243.34375 48.925781 251.386719 56.144531 C 275.261719 77.539062 284.546875 89.773438 288.480469 94.1875 C 251.386719 92.644531 214.023438 100.714844 189.84375 153.980469 Z M 291.945312 225.359375 C 267.984375 227.023438 239.40625 229.023438 214.015625 230.785156 C 235.828125 224.984375 268.8125 222.765625 291.945312 225.359375 Z M 182.984375 207.636719 C 215.085938 206.152344 247.085938 208.796875 278.988281 213.125 C 246.988281 211.292969 214.984375 209.46875 182.984375 207.636719 Z M 214.285156 260.769531 C 238.847656 253.761719 263.421875 246.753906 287.984375 239.753906 C 288.148438 240.332031 288.308594 240.917969 288.472656 241.492188 C 263.867188 248.480469 239.257812 255.460938 214.652344 262.453125 L 214.285156 260.777344 Z M 282.339844 144.117188 C 257.441406 141.039062 234.84375 148.980469 226.972656 165.628906 C 223.515625 188.035156 262.546875 205.609375 293.445312 204.292969 C 303.71875 203.855469 318.035156 203.070312 327.984375 195.015625 C 328.070312 184.738281 309.730469 152.121094 282.339844 144.128906 Z M 307.617188 180.261719 C 307.128906 186.738281 304.554688 200.191406 301.597656 202.164062 C 295.996094 196.097656 290.917969 180.210938 292.058594 173.691406 C 292.304688 165.394531 296.875 157.101562 299.460938 157.703125 C 303.402344 157.3125 308.535156 168.175781 307.617188 180.261719 Z M 307.617188 180.261719 "/>
</g>
</svg>
