<?xml version="1.0" encoding="UTF-8"?>
<svg id="Capa_2" data-name="Capa 2" xmlns="http://www.w3.org/2000/svg" viewBox="0 0 1080.94 1081.05">
  <defs>
    <style>
      .cls-1, .cls-2 {
        fill: #00a09b;
      }

      .cls-1, .cls-2, .cls-3, .cls-4 {
        stroke-width: 0px;
      }

      .cls-2 {
        fill-rule: evenodd;
      }

      .cls-3 {
        fill: #00cac4;
      }

      .cls-4 {
        fill: #f6e70f;
      }
    </style>
  </defs>
  <g id="Logo">
    <g id="Gato_LalaWeen" data-name="Gato LalaWeen">
      <g>
        <path class="cls-4" d="m821.73,42.64c-2.59-2.59-41.67,31.51-100.96,86.21,4.33,3.16,8.16,6.05,11.39,8.59l89.57-94.8Z"/>
        <path class="cls-4" d="m51.36,770.5c-11.75,11.74-11.75,30.77,0,42.52,11.75,11.75,30.79,11.75,42.52,0l29.38-31.09c-9.59-18.4-18.05-37.34-25.35-56.72-29.3,28.49-46.55,45.3-46.55,45.3Z"/>
        <path class="cls-4" d="m374.46,516.04l110.55-117.01c-6.02-10.7-11.39-21.49-16.17-32.05-36.02,34.5-72.42,69.47-107.92,103.66,3.43,14.07,7.51,28.05,12.29,41.91.4,1.17.84,2.32,1.25,3.48Z"/>
        <path class="cls-4" d="m598.99,680.63c-2.71-3.17-4.62-7.07-5.35-11.45-1.99-12,5.46-23.55,17.21-26.67,9.69-2.58,20.15-4.91,31.12-7l6.11-6.41-49.75-2.85c-30.24,29.23-60.27,58.3-89.54,86.68,10.9,9.37,22.26,18.26,34.07,26.62l56.14-58.93Z"/>
        <path class="cls-4" d="m183.4,1029.72c-11.75,11.74-11.75,30.78,0,42.53,11.74,11.74,30.78,11.74,42.52,0l85.48-89.73c-16.36-9.89-32.03-20.56-46.91-32-50.25,49.02-81.1,79.2-81.1,79.2Z"/>
        <path class="cls-4" d="m698.7,575.95c-10.31-6.81-19.45-13.53-27.36-20.18-6.89,6.64-13.79,13.29-20.69,19.95,14.77.78,29.88,1.8,45.35,3.06l2.69-2.83Z"/>
        <path class="cls-4" d="m1080.94,174.7c-3.98-3.98-108.7,93.27-245.29,223.48,6.72,2.69,14.42,6.29,21.78,11.14l223.51-234.62Z"/>
        <path class="cls-4" d="m1059.91.1c-3.6-3.6-103.78,89.8-240.97,221.05,5.36,5.85,9.97,11.05,13.91,15.58L1059.91.1Z"/>
        <path class="cls-4" d="m8.81,1008.68c-11.75,11.75-11.75,30.78,0,42.51,11.74,11.75,30.78,11.75,42.52,0l150.96-157.32c-12.21-13.12-23.69-26.81-34.38-41.03C72.24,946.41,8.81,1008.68,8.81,1008.68Z"/>
        <path class="cls-4" d="m418.74,608.09c7.54,12.06,15.59,23.75,24.17,35.02l333.37-347.42c-13.94,1.08-27.78,3.05-41.43,6.18-99.94,96.2-211.25,204.17-316.1,306.22Z"/>
      </g>
      <g>
        <path class="cls-1" d="m404.94,939.59c-242.12-118.03-342.73-409.99-224.7-652.12,18.46-37.86,41.19-72.25,67.3-102.9-44.32,40.37-81.9,89.64-109.77,146.82-118.03,242.13-17.43,534.09,224.7,652.13,204.29,99.58,444.02,43.5,584.87-121.89-143.37,130.67-357.41,168.13-542.4,77.96Z"/>
        <path class="cls-3" d="m992.6,814.44c-123.15,49.04-265.74,48-394.28-14.67-242.13-118.03-342.73-410-224.7-652.13,17.79-36.49,39.55-69.73,64.47-99.53-72.54,28.89-138.33,75.17-190.54,136.46-26.11,30.65-48.84,65.03-67.3,102.9-118.03,242.13-17.43,534.09,224.7,652.12,184.99,90.17,399.03,52.7,542.4-77.96,16.01-14.59,31.16-30.33,45.26-47.19Z"/>
      </g>
      <g>
        <path class="cls-2" d="m1016.61,667.69c6.06-.04,11.89-3.75,16.8-8.17,7.66-6.9,15.19-14.46,20.7-23.06,5.64-8.82,2.44-17.16-8.87-17.69-9.25-.43-18.54-.62-27.83-.59h-1.58c-9.28-.03-18.57.15-27.84.59-11.31.53-14.51,8.88-8.86,17.69,5.5,8.6,13.03,16.17,20.69,23.06,4.91,4.42,10.74,8.13,16.8,8.17Z"/>
        <path class="cls-2" d="m945.47,562.18c-28.68,23.23-69.95,25.48-99.57,26.75-89.06,3.82-201.6-46.87-191.63-111.46,22.68-48,87.84-70.88,159.6-62.01,78.98,23.04,131.86,117.09,131.6,146.71Z"/>
        <path class="cls-2" d="m547.22,443.89c-48.4-48.38-75.43-127.02-85.98-172.13-20.57-87.99,2.43-179.76,35.84-223.64,93.95,17.43,204.37,92.93,227.56,113.71,68.83,61.68,95.59,96.95,106.94,109.69-106.94-4.44-214.66,18.8-284.36,172.37Z"/>
        <path class="cls-2" d="m841.56,649.66c-69.07,4.81-151.47,10.56-224.65,15.65,62.88-16.72,157.99-23.12,224.65-15.65Z"/>
        <path class="cls-2" d="m527.46,598.57c92.55-4.27,184.79,3.34,276.75,15.83-92.25-5.28-184.5-10.55-276.75-15.83Z"/>
        <path class="cls-2" d="m617.69,751.74c70.82-20.2,141.65-40.39,212.47-60.59.47,1.67.94,3.34,1.41,5-70.94,20.14-141.88,40.28-212.82,60.42-.36-1.61-.7-3.23-1.06-4.84Z"/>
      </g>
    </g>
  </g>
</svg>